name analog
datacolumns 19
datarows 23
range 0.47900000000000004 0.49
endheader
time	ground_force_vx	ground_force_vy	ground_force_vz	ground_force_px	ground_force_py	ground_force_pz	l_ground_force_vx	l_ground_force_vy	l_ground_force_vz	l_ground_force_px	l_ground_force_py	l_ground_force_pz	ground_torque_x	ground_torque_y	ground_torque_z	l_ground_torque_x	l_ground_torque_y	l_ground_torque_z
0.47900000000000004	-0.0	-0.0	-0.0	8.108198165893555	40.07247543334961	-281.4576110839844	2.1748974323272705	-39.456974029541016	-315.9037170410156	-0.0	-0.0	-0.0	-0.0	-0.0	-0.0	73228.03125	-18808.732421875	1337.406494140625
0.47950000000000004	-0.0	-0.0	-0.0	8.409028053283691	37.63250350952149	-268.24761962890625	1.13370943069458	-38.35457611083984	-309.7882385253906	-0.0	-0.0	-0.0	-0.0	-0.0	-0.0	71874.3984375	-18908.873046875	1274.3291015625
0.48	-0.0	-0.0	-0.0	8.09476089477539	35.02825164794922	-254.02899169921875	0.6441900730133057	-37.49462127685547	-301.88726806640625	-0.0	-0.0	-0.0	-0.0	-0.0	-0.0	70111.9921875	-19106.0078125	1282.0137939453125
0.4805	-0.0	-0.0	-0.0	8.991619110107422	32.32639694213867	-241.1480865478516	0.1027087420225143	-37.04862976074219	-294.0775451660156	-0.0	-0.0	-0.0	-0.0	-0.0	-0.0	68514.6953125	-19088.904296875	1387.9970703125
0.481	-0.0	-0.0	-0.0	9.813156127929688	29.5112419128418	-224.6442108154297	0.999314546585083	-35.73781967163086	-286.59686279296875	-0.0	-0.0	-0.0	-0.0	-0.0	-0.0	67175.8359375	-19231.349609375	1638.8690185546875
0.4815	-0.0	-0.0	-0.0	9.465211868286133	26.58464241027832	-207.882080078125	1.4519169330596924	-35.793800354003906	-278.05279541015625	-0.0	-0.0	-0.0	-0.0	-0.0	-0.0	65571.046875	-19288.255859375	1933.9698486328125
0.482	-0.0	-0.0	-0.0	10.478944778442385	24.323923110961918	-194.11978149414065	2.347663640975952	-35.464317321777344	-269.32373046875	-0.0	-0.0	-0.0	-0.0	-0.0	-0.0	63566.20703125	-18924.853515625	2441.005615234375
0.4825	-0.0	-0.0	-0.0	11.005446434020996	21.578001022338867	-179.0287628173828	3.7906453609466553	-35.16047286987305	-260.4003601074219	-0.0	-0.0	-0.0	-0.0	-0.0	-0.0	61712.4921875	-18693.9609375	2833.514892578125
0.483	-0.0	-0.0	-0.0	11.946496963500977	20.013628005981445	-165.92916870117188	4.9595160484313965	-34.533782958984375	-252.14947509765625	-0.0	-0.0	-0.0	-0.0	-0.0	-0.0	59673.75	-18651.96484375	3311.859375
0.4835	-0.0	-0.0	-0.0	11.897424697875977	18.4175968170166	-153.8580780029297	6.556500434875488	-34.212623596191406	-243.8348388671875	-0.0	-0.0	-0.0	-0.0	-0.0	-0.0	57759.6875	-18375.7734375	3741.724609375
0.484	-0.0	-0.0	-0.0	12.586517333984377	17.12969970703125	-141.30697631835938	7.580474853515625	-33.674781799316406	-236.5023498535156	-0.0	-0.0	-0.0	-0.0	-0.0	-0.0	55996.1015625	-18156.982421875	4136.408203125
0.4845	-0.0	-0.0	-0.0	12.635615348815918	15.597820281982422	-129.48924255371094	9.299324989318848	-33.62770462036133	-230.91563415527344	-0.0	-0.0	-0.0	-0.0	-0.0	-0.0	54848.81640625	-17984.078125	4528.4892578125
0.485	-0.0	-0.0	-0.0	13.235355377197266	14.342612266540527	-119.85547637939452	9.765607833862305	-33.3217887878418	-226.4732818603516	-0.0	-0.0	-0.0	-0.0	-0.0	-0.0	53630.78515625	-18033.73828125	4874.88818359375
0.4855	-0.0	-0.0	-0.0	13.374380111694336	12.396316528320312	-110.3326187133789	10.475103378295898	-32.67182540893555	-221.01296997070312	-0.0	-0.0	-0.0	-0.0	-0.0	-0.0	52155.2578125	-17567.80078125	5128.61181640625
0.486	-0.0	-0.0	-0.0	13.566981315612791	11.077228546142578	-101.8867645263672	10.258541107177734	-32.23042678833008	-214.82620239257807	-0.0	-0.0	-0.0	-0.0	-0.0	-0.0	51136.296875	-17469.74609375	5149.98193359375
0.4865	-0.0	-0.0	-0.0	13.777155876159668	10.090205192565918	-95.88485717773438	9.985698699951172	-32.05401611328125	-210.2694091796875	-0.0	-0.0	-0.0	-0.0	-0.0	-0.0	50024.81640625	-17241.328125	5192.43603515625
0.487	-0.0	-0.0	-0.0	14.069897651672363	8.862359046936035	-89.12772369384766	9.378171920776367	-32.40748977661133	-206.4476776123047	-0.0	-0.0	-0.0	-0.0	-0.0	-0.0	49051.4296875	-16922.322265625	5179.02197265625
0.4875	-0.0	-0.0	-0.0	14.624154090881348	8.461024284362793	-84.61183166503906	9.346339225769045	-32.69783020019531	-202.0592193603516	-0.0	-0.0	-0.0	-0.0	-0.0	-0.0	48008.13671875	-16958.29296875	5227.671875
0.488	-0.0	-0.0	-0.0	14.885881423950195	7.569952964782715	-81.56027221679688	9.080129623413086	-32.42020797729492	-197.49533081054688	-0.0	-0.0	-0.0	-0.0	-0.0	-0.0	47088.89453125	-16779.015625	5350.392578125
0.4885	-0.0	-0.0	-0.0	15.38986110687256	6.678862571716309	-75.148681640625	9.776079177856444	-32.44548034667969	-194.4001922607422	-0.0	-0.0	-0.0	-0.0	-0.0	-0.0	45923.26171875	-16632.935546875	5564.998046875
0.489	-0.0	-0.0	-0.0	15.758626937866213	5.804845333099365	-72.29917907714844	10.150242805480955	-32.11204528808594	-191.211181640625	-0.0	-0.0	-0.0	-0.0	-0.0	-0.0	45067.70703125	-16567.857421875	5800.77099609375
0.4895	-0.0	-0.0	-0.0	16.04693603515625	5.14350175857544	-68.97335815429688	10.916948318481444	-31.655933380126957	-189.69122314453125	-0.0	-0.0	-0.0	-0.0	-0.0	-0.0	44551.69140625	-16334.4501953125	6131.5224609375
0.49	-0.0	-0.0	-0.0	16.30988311767578	4.4827094078063965	-65.67053985595703	12.310113906860352	-31.12044334411621	-187.1242828369141	-0.0	-0.0	-0.0	-0.0	-0.0	-0.0	44368.95703125	-16586.54296875	6416.982421875
